<mxfile host="app.diagrams.net" modified="2021-12-30T03:19:25.652Z" agent="5.0 (Macintosh; Intel Mac OS X 10_15_7) AppleWebKit/537.36 (KHTML, like Gecko) Chrome/96.0.4664.110 Safari/537.36" etag="rTcPahagooM1kt6j132-" version="16.0.3" type="github">
  <diagram name="Page-1" id="12e1b939-464a-85fe-373e-61e167be1490">
    <mxGraphModel dx="1892" dy="1054" grid="1" gridSize="10" guides="1" tooltips="1" connect="1" arrows="1" fold="1" page="1" pageScale="1.5" pageWidth="1169" pageHeight="826" background="none" math="0" shadow="0">
      <root>
        <mxCell id="0" />
        <mxCell id="1" parent="0" />
        <mxCell id="60da8b9f42644d3a-2" value="" style="whiteSpace=wrap;html=1;rounded=1;shadow=0;strokeWidth=8;fontSize=20;align=center;fillColor=#99FF33;strokeColor=#FFFFFF;" parent="1" vertex="1">
          <mxGeometry x="380" y="419.5" width="380" height="430" as="geometry" />
        </mxCell>
        <mxCell id="60da8b9f42644d3a-3" value="浏览器" style="text;html=1;strokeColor=none;fillColor=none;align=center;verticalAlign=middle;whiteSpace=wrap;rounded=0;shadow=0;fontSize=27;fontColor=#FFFFFF;fontStyle=1" parent="1" vertex="1">
          <mxGeometry x="430" y="439.5" width="280" height="60" as="geometry" />
        </mxCell>
        <mxCell id="60da8b9f42644d3a-6" value="" style="line;strokeWidth=2;html=1;rounded=0;shadow=0;fontSize=27;align=center;fillColor=none;strokeColor=#FFFFFF;" parent="1" vertex="1">
          <mxGeometry x="450" y="489.5" width="240" height="10" as="geometry" />
        </mxCell>
        <mxCell id="60da8b9f42644d3a-9" value="" style="html=1;shadow=0;dashed=0;align=center;verticalAlign=middle;shape=mxgraph.arrows2.stylisedArrow;dy=0.6;dx=40;notch=15;feather=0.4;rounded=0;strokeWidth=1;fontSize=27;strokeColor=none;fillColor=#fff2cc;" parent="1" vertex="1">
          <mxGeometry x="510" y="604.5" width="100" height="60" as="geometry" />
        </mxCell>
        <mxCell id="60da8b9f42644d3a-22" value="输出校验" style="ellipse;whiteSpace=wrap;html=1;rounded=0;shadow=0;strokeWidth=6;fontSize=14;align=center;fillColor=#397DAA;strokeColor=#FFFFFF;fontColor=#FFFFFF;" parent="1" vertex="1">
          <mxGeometry x="640" y="576.5" width="115" height="115" as="geometry" />
        </mxCell>
        <mxCell id="DgpiiJ7XvW5AUzLxSz6z-3" value="输入校验" style="ellipse;whiteSpace=wrap;html=1;rounded=0;shadow=0;strokeWidth=6;fontSize=14;align=center;fillColor=#EF9353;strokeColor=#FFFFFF;fontColor=#FFFFFF;" vertex="1" parent="1">
          <mxGeometry x="380" y="576.5" width="115" height="115" as="geometry" />
        </mxCell>
        <mxCell id="60da8b9f42644d3a-17" value="" style="whiteSpace=wrap;html=1;rounded=1;shadow=0;strokeWidth=8;fontSize=20;align=center;fillColor=#FFC001;strokeColor=#FFFFFF;" parent="1" vertex="1">
          <mxGeometry x="1010" y="420" width="390" height="430" as="geometry" />
        </mxCell>
        <mxCell id="60da8b9f42644d3a-18" value="服务器" style="text;html=1;strokeColor=none;fillColor=none;align=center;verticalAlign=middle;whiteSpace=wrap;rounded=0;shadow=0;fontSize=27;fontColor=#FFFFFF;fontStyle=1" parent="1" vertex="1">
          <mxGeometry x="1066" y="440" width="280" height="60" as="geometry" />
        </mxCell>
        <mxCell id="60da8b9f42644d3a-20" value="" style="line;strokeWidth=2;html=1;rounded=0;shadow=0;fontSize=27;align=center;fillColor=none;strokeColor=#FFFFFF;" parent="1" vertex="1">
          <mxGeometry x="1086" y="500" width="240" height="10" as="geometry" />
        </mxCell>
        <mxCell id="60da8b9f42644d3a-23" value="" style="html=1;shadow=0;dashed=0;align=center;verticalAlign=middle;shape=mxgraph.arrows2.stylisedArrow;dy=0.6;dx=40;notch=15;feather=0.4;rounded=0;strokeWidth=1;fontSize=27;strokeColor=none;fillColor=#fff2cc;" parent="1" vertex="1">
          <mxGeometry x="1156" y="605" width="100" height="60" as="geometry" />
        </mxCell>
        <mxCell id="DgpiiJ7XvW5AUzLxSz6z-1" value="输出校验" style="ellipse;whiteSpace=wrap;html=1;rounded=0;shadow=0;strokeWidth=6;fontSize=14;align=center;fillColor=#397DAA;strokeColor=#FFFFFF;fontColor=#FFFFFF;" vertex="1" parent="1">
          <mxGeometry x="1280" y="577" width="115" height="115" as="geometry" />
        </mxCell>
        <mxCell id="DgpiiJ7XvW5AUzLxSz6z-4" value="输入校验" style="ellipse;whiteSpace=wrap;html=1;rounded=0;shadow=0;strokeWidth=6;fontSize=14;align=center;fillColor=#EF9353;strokeColor=#FFFFFF;fontColor=#FFFFFF;" vertex="1" parent="1">
          <mxGeometry x="1010" y="577" width="115" height="115" as="geometry" />
        </mxCell>
        <mxCell id="60da8b9f42644d3a-24" value="" style="whiteSpace=wrap;html=1;rounded=1;shadow=0;strokeWidth=8;fontSize=20;align=center;fillColor=#999900;strokeColor=#FFFFFF;" parent="1" vertex="1">
          <mxGeometry x="1640" y="420" width="390" height="430" as="geometry" />
        </mxCell>
        <mxCell id="60da8b9f42644d3a-25" value="数据库" style="text;html=1;strokeColor=none;fillColor=none;align=center;verticalAlign=middle;whiteSpace=wrap;rounded=0;shadow=0;fontSize=27;fontColor=#FFFFFF;fontStyle=1" parent="1" vertex="1">
          <mxGeometry x="1701.5" y="440" width="280" height="60" as="geometry" />
        </mxCell>
        <mxCell id="60da8b9f42644d3a-27" value="" style="line;strokeWidth=2;html=1;rounded=0;shadow=0;fontSize=27;align=center;fillColor=none;strokeColor=#FFFFFF;" parent="1" vertex="1">
          <mxGeometry x="1721.5" y="500" width="240" height="10" as="geometry" />
        </mxCell>
        <mxCell id="60da8b9f42644d3a-29" value="输入校验" style="ellipse;whiteSpace=wrap;html=1;rounded=0;shadow=0;strokeWidth=6;fontSize=14;align=center;fillColor=#EF9353;strokeColor=#FFFFFF;fontColor=#FFFFFF;" parent="1" vertex="1">
          <mxGeometry x="1640" y="577" width="115" height="115" as="geometry" />
        </mxCell>
        <mxCell id="DgpiiJ7XvW5AUzLxSz6z-5" value="输出校验" style="ellipse;whiteSpace=wrap;html=1;rounded=0;shadow=0;strokeWidth=6;fontSize=14;align=center;fillColor=#397DAA;strokeColor=#FFFFFF;fontColor=#FFFFFF;" vertex="1" parent="1">
          <mxGeometry x="1911.5" y="577" width="115" height="115" as="geometry" />
        </mxCell>
        <mxCell id="DgpiiJ7XvW5AUzLxSz6z-7" value="" style="html=1;shadow=0;dashed=0;align=center;verticalAlign=middle;shape=mxgraph.arrows2.stylisedArrow;dy=0.6;dx=40;notch=15;feather=0.4;rounded=0;strokeWidth=1;fontSize=27;strokeColor=none;fillColor=#fff2cc;" vertex="1" parent="1">
          <mxGeometry x="1781.5" y="605" width="100" height="60" as="geometry" />
        </mxCell>
        <mxCell id="DgpiiJ7XvW5AUzLxSz6z-21" value="" style="group" vertex="1" connectable="0" parent="1">
          <mxGeometry x="1409.9999999999973" y="624.5" width="215.000000000005" height="20" as="geometry" />
        </mxCell>
        <mxCell id="DgpiiJ7XvW5AUzLxSz6z-12" value="" style="shape=flexArrow;endArrow=classic;html=1;rounded=0;exitX=1;exitY=0.5;exitDx=0;exitDy=0;entryX=0;entryY=0.5;entryDx=0;entryDy=0;fillColor=#FF9999;startArrow=none;" edge="1" parent="DgpiiJ7XvW5AUzLxSz6z-21" source="DgpiiJ7XvW5AUzLxSz6z-16">
          <mxGeometry width="50" height="50" relative="1" as="geometry">
            <mxPoint y="9.590000000000032" as="sourcePoint" />
            <mxPoint x="215.000000000005" y="9.590000000000032" as="targetPoint" />
          </mxGeometry>
        </mxCell>
        <mxCell id="DgpiiJ7XvW5AUzLxSz6z-16" value="&lt;font style=&quot;font-size: 18px&quot;&gt;&lt;b&gt;不可信数据&lt;/b&gt;&lt;/font&gt;" style="text;html=1;align=center;verticalAlign=middle;resizable=0;points=[];autosize=1;strokeColor=none;fillColor=none;" vertex="1" parent="DgpiiJ7XvW5AUzLxSz6z-21">
          <mxGeometry x="40.00000000000273" width="110" height="20" as="geometry" />
        </mxCell>
        <mxCell id="DgpiiJ7XvW5AUzLxSz6z-19" value="" style="shape=flexArrow;endArrow=none;html=1;rounded=0;exitX=1;exitY=0.5;exitDx=0;exitDy=0;entryX=0;entryY=0.5;entryDx=0;entryDy=0;fillColor=#FF9999;" edge="1" parent="DgpiiJ7XvW5AUzLxSz6z-21" target="DgpiiJ7XvW5AUzLxSz6z-16">
          <mxGeometry width="50" height="50" relative="1" as="geometry">
            <mxPoint y="9.590000000000146" as="sourcePoint" />
            <mxPoint x="215.000000000005" y="9.590000000000146" as="targetPoint" />
          </mxGeometry>
        </mxCell>
        <mxCell id="DgpiiJ7XvW5AUzLxSz6z-22" value="" style="group" vertex="1" connectable="0" parent="1">
          <mxGeometry x="779.9999999999973" y="625" width="215.000000000005" height="20" as="geometry" />
        </mxCell>
        <mxCell id="DgpiiJ7XvW5AUzLxSz6z-23" value="" style="shape=flexArrow;endArrow=classic;html=1;rounded=0;exitX=1;exitY=0.5;exitDx=0;exitDy=0;entryX=0;entryY=0.5;entryDx=0;entryDy=0;fillColor=#FF9999;startArrow=none;" edge="1" parent="DgpiiJ7XvW5AUzLxSz6z-22" source="DgpiiJ7XvW5AUzLxSz6z-24">
          <mxGeometry width="50" height="50" relative="1" as="geometry">
            <mxPoint y="9.590000000000032" as="sourcePoint" />
            <mxPoint x="215.000000000005" y="9.590000000000032" as="targetPoint" />
          </mxGeometry>
        </mxCell>
        <mxCell id="DgpiiJ7XvW5AUzLxSz6z-24" value="&lt;font style=&quot;font-size: 18px&quot;&gt;&lt;b&gt;不可信数据&lt;/b&gt;&lt;/font&gt;" style="text;html=1;align=center;verticalAlign=middle;resizable=0;points=[];autosize=1;strokeColor=none;fillColor=none;" vertex="1" parent="DgpiiJ7XvW5AUzLxSz6z-22">
          <mxGeometry x="40.00000000000273" width="110" height="20" as="geometry" />
        </mxCell>
        <mxCell id="DgpiiJ7XvW5AUzLxSz6z-25" value="" style="shape=flexArrow;endArrow=none;html=1;rounded=0;exitX=1;exitY=0.5;exitDx=0;exitDy=0;entryX=0;entryY=0.5;entryDx=0;entryDy=0;fillColor=#FF9999;" edge="1" parent="DgpiiJ7XvW5AUzLxSz6z-22" target="DgpiiJ7XvW5AUzLxSz6z-24">
          <mxGeometry width="50" height="50" relative="1" as="geometry">
            <mxPoint y="9.590000000000146" as="sourcePoint" />
            <mxPoint x="215.000000000005" y="9.590000000000146" as="targetPoint" />
          </mxGeometry>
        </mxCell>
        <mxCell id="DgpiiJ7XvW5AUzLxSz6z-26" value="" style="group" vertex="1" connectable="0" parent="1">
          <mxGeometry x="139.99999999999727" y="625" width="215.000000000005" height="20" as="geometry" />
        </mxCell>
        <mxCell id="DgpiiJ7XvW5AUzLxSz6z-27" value="" style="shape=flexArrow;endArrow=classic;html=1;rounded=0;exitX=1;exitY=0.5;exitDx=0;exitDy=0;entryX=0;entryY=0.5;entryDx=0;entryDy=0;fillColor=#FF9999;startArrow=none;" edge="1" parent="DgpiiJ7XvW5AUzLxSz6z-26" source="DgpiiJ7XvW5AUzLxSz6z-28">
          <mxGeometry width="50" height="50" relative="1" as="geometry">
            <mxPoint y="9.590000000000032" as="sourcePoint" />
            <mxPoint x="215.000000000005" y="9.590000000000032" as="targetPoint" />
          </mxGeometry>
        </mxCell>
        <mxCell id="DgpiiJ7XvW5AUzLxSz6z-28" value="&lt;font style=&quot;font-size: 18px&quot;&gt;&lt;b&gt;不可信数据&lt;/b&gt;&lt;/font&gt;" style="text;html=1;align=center;verticalAlign=middle;resizable=0;points=[];autosize=1;strokeColor=none;fillColor=none;" vertex="1" parent="DgpiiJ7XvW5AUzLxSz6z-26">
          <mxGeometry x="40.00000000000273" width="110" height="20" as="geometry" />
        </mxCell>
        <mxCell id="DgpiiJ7XvW5AUzLxSz6z-29" value="" style="shape=flexArrow;endArrow=none;html=1;rounded=0;exitX=1;exitY=0.5;exitDx=0;exitDy=0;entryX=0;entryY=0.5;entryDx=0;entryDy=0;fillColor=#FF9999;" edge="1" parent="DgpiiJ7XvW5AUzLxSz6z-26" target="DgpiiJ7XvW5AUzLxSz6z-28">
          <mxGeometry width="50" height="50" relative="1" as="geometry">
            <mxPoint y="9.590000000000146" as="sourcePoint" />
            <mxPoint x="215.000000000005" y="9.590000000000146" as="targetPoint" />
          </mxGeometry>
        </mxCell>
        <mxCell id="DgpiiJ7XvW5AUzLxSz6z-33" value="&lt;font style=&quot;font-size: 18px&quot;&gt;&lt;b&gt;信任边界&lt;/b&gt;&lt;/font&gt;" style="text;html=1;strokeColor=none;fillColor=none;align=center;verticalAlign=middle;whiteSpace=wrap;rounded=0;fontSize=18;" vertex="1" parent="1">
          <mxGeometry x="510" y="790" width="120" height="30" as="geometry" />
        </mxCell>
        <mxCell id="DgpiiJ7XvW5AUzLxSz6z-34" value="&lt;font style=&quot;font-size: 18px&quot;&gt;&lt;b&gt;信任边界&lt;/b&gt;&lt;/font&gt;" style="text;html=1;strokeColor=none;fillColor=none;align=center;verticalAlign=middle;whiteSpace=wrap;rounded=0;fontSize=18;" vertex="1" parent="1">
          <mxGeometry x="1145" y="790" width="120" height="30" as="geometry" />
        </mxCell>
        <mxCell id="DgpiiJ7XvW5AUzLxSz6z-36" value="&lt;font style=&quot;font-size: 18px&quot;&gt;&lt;b&gt;信任边界&lt;/b&gt;&lt;/font&gt;" style="text;html=1;strokeColor=none;fillColor=none;align=center;verticalAlign=middle;whiteSpace=wrap;rounded=0;fontSize=18;" vertex="1" parent="1">
          <mxGeometry x="1771.5" y="790" width="120" height="30" as="geometry" />
        </mxCell>
      </root>
    </mxGraphModel>
  </diagram>
</mxfile>
